<svg width="30" height="30" viewBox="0 0 30 30" fill="none" xmlns="http://www.w3.org/2000/svg">
<path d="M15 21.25V26.25" stroke="#667085" stroke-width="2" stroke-linecap="round" stroke-linejoin="round"/>
<path d="M17.8813 9.4125L19.0351 8.935" stroke="#667085" stroke-width="2" stroke-linecap="round" stroke-linejoin="round"/>
<path d="M19.0351 6.06499L17.8813 5.58624" stroke="#667085" stroke-width="2" stroke-linecap="round" stroke-linejoin="round"/>
<path d="M21.0649 4.035L20.5862 2.88" stroke="#667085" stroke-width="2" stroke-linecap="round" stroke-linejoin="round"/>
<path d="M21.0649 10.965L20.5862 12.1187" stroke="#667085" stroke-width="2" stroke-linecap="round" stroke-linejoin="round"/>
<path d="M23.9351 4.035L24.4138 2.88" stroke="#667085" stroke-width="2" stroke-linecap="round" stroke-linejoin="round"/>
<path d="M24.4126 12.12L23.9351 10.965" stroke="#667085" stroke-width="2" stroke-linecap="round" stroke-linejoin="round"/>
<path d="M25.9651 6.06499L27.1201 5.58624" stroke="#667085" stroke-width="2" stroke-linecap="round" stroke-linejoin="round"/>
<path d="M25.9651 8.935L27.1201 9.41375" stroke="#667085" stroke-width="2" stroke-linecap="round" stroke-linejoin="round"/>
<path d="M27.5 16.25V18.75C27.5 19.413 27.2366 20.0489 26.7678 20.5178C26.2989 20.9866 25.663 21.25 25 21.25H5C4.33696 21.25 3.70107 20.9866 3.23223 20.5178C2.76339 20.0489 2.5 19.413 2.5 18.75V6.25C2.5 5.58696 2.76339 4.95107 3.23223 4.48223C3.70107 4.01339 4.33696 3.75 5 3.75H13.75" stroke="#667085" stroke-width="2" stroke-linecap="round" stroke-linejoin="round"/>
<path d="M10 26.25H20" stroke="#667085" stroke-width="2" stroke-linecap="round" stroke-linejoin="round"/>
<path d="M22.5 11.25C24.5711 11.25 26.25 9.57107 26.25 7.5C26.25 5.42893 24.5711 3.75 22.5 3.75C20.4289 3.75 18.75 5.42893 18.75 7.5C18.75 9.57107 20.4289 11.25 22.5 11.25Z" stroke="#667085" stroke-width="2" stroke-linecap="round" stroke-linejoin="round"/>
</svg>
