<svg width="19" height="20" viewBox="0 0 19 20" fill="none" xmlns="http://www.w3.org/2000/svg">
<path d="M4.39893 9H6.39893V11H4.39893V9ZM4.39893 13H6.39893V15H4.39893V13ZM8.39893 9H10.3989V11H8.39893V9ZM8.39893 13H10.3989V15H8.39893V13ZM12.3989 9H14.3989V11H12.3989V9ZM12.3989 13H14.3989V15H12.3989V13Z" fill="#82807C"/>
<path d="M2.39893 20H16.3989C17.5019 20 18.3989 19.103 18.3989 18V4C18.3989 2.897 17.5019 2 16.3989 2H14.3989V0H12.3989V2H6.39893V0H4.39893V2H2.39893C1.29593 2 0.398926 2.897 0.398926 4V18C0.398926 19.103 1.29593 20 2.39893 20ZM16.3989 6L16.3999 18H2.39893V6H16.3989Z" fill="#82807C"/>
</svg>
