<svg width="20" height="20" viewBox="0 0 20 20" fill="none" xmlns="http://www.w3.org/2000/svg">
<path d="M10.3669 1.25C10.2544 1.25 10.1369 1.25625 10.0169 1.265C6.93563 1.5075 7.75313 4.77 7.70438 5.8575C7.65063 6.65375 7.48688 7.2825 6.93938 8.06C6.29438 8.82625 5.38938 10.065 4.95938 11.3562C4.75688 11.9625 4.65938 12.5837 4.75063 13.1712C4.71741 13.1983 4.69016 13.2319 4.67063 13.27C4.48063 13.465 4.34188 13.7075 4.18688 13.8825C4.04188 14.0262 3.83313 14.0762 3.60563 14.1725C3.37688 14.2725 3.12563 14.3687 2.97563 14.6687C2.90984 14.8055 2.87688 14.9558 2.87938 15.1075C2.87938 15.2525 2.89938 15.4 2.91938 15.4987C2.96188 15.79 3.00438 16.03 2.94813 16.2062C2.76688 16.7012 2.74438 17.0412 2.87063 17.2875C2.99813 17.5312 3.26188 17.6312 3.55688 17.7262C4.14688 17.8725 4.94938 17.825 5.57938 18.1637C6.25438 18.5037 6.93938 18.6512 7.48688 18.5062C7.87063 18.4225 8.19438 18.1687 8.36813 17.8162C8.79563 17.815 9.26438 17.62 10.0156 17.5737C10.5256 17.5312 11.1631 17.7675 11.8944 17.7187C11.9131 17.8162 11.9406 17.8637 11.9781 17.9612L11.9794 17.9637C12.2656 18.5312 12.7919 18.7887 13.3544 18.745C13.9169 18.7012 14.5144 18.3537 14.9994 17.7925C15.4594 17.235 16.2269 17.0025 16.7331 16.6962C16.9869 16.5512 17.1919 16.355 17.2069 16.075C17.2231 15.7825 17.0606 15.4837 16.6856 15.0712V15.0012L16.6831 14.9987C16.5594 14.8525 16.5019 14.6087 16.4369 14.3237C16.3744 14.0312 16.3044 13.75 16.0781 13.5612C16.0344 13.5212 15.9869 13.5112 15.9394 13.4612C15.8989 13.4331 15.8512 13.4171 15.8019 13.415C16.1144 12.4837 15.9931 11.5562 15.6744 10.7225C15.2869 9.69375 14.6069 8.7975 14.0881 8.1825C13.5081 7.44875 12.9394 6.755 12.9506 5.72625C12.9706 4.1575 13.1231 1.25375 10.3669 1.25ZM10.7531 3.7325H10.7619C10.9181 3.7325 11.0506 3.7775 11.1869 3.8775C11.3217 3.98057 11.4312 4.11312 11.5069 4.265C11.5844 4.455 11.6231 4.6 11.6281 4.79375C11.6281 4.77875 11.6331 4.765 11.6331 4.75V4.82625C11.6313 4.82142 11.63 4.81639 11.6294 4.81125L11.6269 4.79375C11.6256 4.97125 11.5894 5.14625 11.5181 5.30875C11.4837 5.40007 11.4305 5.48312 11.3619 5.5525C11.3413 5.54107 11.32 5.53104 11.2981 5.5225C11.2231 5.48875 11.1544 5.475 11.0906 5.425C11.0388 5.40453 10.9852 5.38864 10.9306 5.3775C10.9681 5.33375 11.0369 5.28 11.0644 5.2325C11.1025 5.13946 11.1241 5.04047 11.1281 4.94V4.925C11.13 4.82615 11.1152 4.7277 11.0844 4.63375C11.0506 4.535 11.0094 4.4875 10.9506 4.39C10.8881 4.3425 10.8281 4.29375 10.7556 4.29375H10.7431C10.6756 4.29375 10.6156 4.31625 10.5531 4.39C10.4837 4.45754 10.4321 4.54131 10.4031 4.63375C10.3645 4.7267 10.3425 4.8257 10.3381 4.92625V4.93875C10.3381 5.005 10.3431 5.07 10.3519 5.13375C10.2119 5.085 10.0331 5.03625 9.90938 4.9875C9.90222 4.93905 9.89804 4.89021 9.89688 4.84125V4.825C9.89097 4.63256 9.92813 4.44124 10.0056 4.265C10.0655 4.10526 10.1756 3.96928 10.3194 3.8775C10.4442 3.78278 10.5965 3.73143 10.7531 3.73125V3.7325ZM8.59313 3.77625H8.61813C8.72313 3.77625 8.81563 3.81125 8.91063 3.87375C9.01704 3.96816 9.10224 4.08404 9.16063 4.21375C9.22688 4.35875 9.26313 4.505 9.27313 4.7V4.7025C9.27816 4.76703 9.27732 4.83187 9.27063 4.89625V4.955L9.21063 4.9725C9.09938 5.0125 9.01063 5.07125 8.92313 5.11875C8.932 5.0541 8.93284 4.9886 8.92563 4.92375V4.9125C8.91688 4.815 8.89688 4.76625 8.86688 4.67C8.84411 4.59556 8.80232 4.52835 8.74563 4.475C8.72758 4.45871 8.70644 4.44623 8.68346 4.43828C8.66048 4.43034 8.63614 4.42709 8.61188 4.42875H8.59688C8.54438 4.4325 8.50188 4.4575 8.46063 4.525C8.41422 4.58128 8.38398 4.64911 8.37313 4.72125C8.35351 4.80007 8.348 4.88175 8.35688 4.9625V4.9725C8.36563 5.0725 8.38313 5.11875 8.41563 5.21625C8.43811 5.29089 8.47944 5.35848 8.53563 5.4125C8.54313 5.41875 8.55063 5.425 8.56063 5.43C8.51063 5.47125 8.47563 5.48 8.43313 5.52875C8.4057 5.55314 8.37262 5.57033 8.33688 5.57875C8.26124 5.48725 8.19429 5.38891 8.13688 5.285C8.06815 5.13176 8.02994 4.9666 8.02438 4.79875C8.01188 4.63375 8.03063 4.46875 8.08188 4.31125C8.12202 4.16802 8.19235 4.03505 8.28813 3.92125C8.38188 3.825 8.47813 3.77625 8.59313 3.77625ZM9.59188 5.02C9.83438 5.02 10.1269 5.0675 10.4794 5.31125C10.6919 5.45625 10.8594 5.5075 11.2456 5.6525H11.2481C11.4344 5.75125 11.5431 5.84625 11.5969 5.9425V5.8475C11.623 5.90052 11.6375 5.95848 11.6394 6.01754C11.6413 6.07659 11.6307 6.13538 11.6081 6.19C11.5181 6.415 11.2319 6.65875 10.8331 6.80375C10.6381 6.90375 10.4681 7.04875 10.2681 7.145C10.0669 7.2425 9.83938 7.3575 9.53063 7.33875C9.4193 7.34466 9.30792 7.32808 9.20313 7.29C9.12231 7.24627 9.04387 7.19829 8.96813 7.14625C8.82688 7.0475 8.70438 6.90375 8.52188 6.8075V6.80375H8.51813C8.22688 6.62375 8.06938 6.43 8.01813 6.28625C7.96813 6.09 8.01438 5.9425 8.15938 5.84875C8.32188 5.74875 8.43563 5.65 8.51188 5.6025C8.58688 5.54875 8.61563 5.52875 8.63938 5.5075L8.64063 5.505C8.76438 5.35875 8.95938 5.1625 9.25313 5.0675C9.35313 5.04125 9.46688 5.02 9.59313 5.02H9.59188ZM11.6331 6.5825C11.8956 7.615 12.5056 9.115 12.8981 9.84375C13.1069 10.2325 13.5231 11.0525 13.7019 12.0487C13.8156 12.045 13.9431 12.0612 14.0769 12.095C14.5469 10.8762 13.6781 9.5675 13.2819 9.2025C13.1219 9.0575 13.1131 8.95875 13.1931 8.95875C13.6231 9.34875 14.1881 10.105 14.3931 10.9687C14.4869 11.3587 14.5094 11.7737 14.4081 12.1862C14.4569 12.2075 14.5069 12.23 14.5581 12.2362C15.3094 12.625 15.5881 12.92 15.4544 13.3562V13.325C15.4106 13.3225 15.3669 13.325 15.3231 13.325H15.3106C15.4219 12.985 15.1781 12.7237 14.5356 12.4325C13.8681 12.1412 13.3356 12.1875 13.2444 12.7712C13.2381 12.8025 13.2344 12.82 13.2319 12.87C13.1819 12.8862 13.1294 12.9075 13.0781 12.9162C12.7656 13.1125 12.5956 13.4037 12.5006 13.7825C12.4056 14.17 12.3756 14.625 12.3506 15.145V15.1475C12.3369 15.3912 12.2269 15.7587 12.1181 16.1312C11.0244 16.9137 9.50813 17.2525 8.21813 16.375C8.13734 16.234 8.03907 16.1038 7.92563 15.9875C7.87152 15.8967 7.80411 15.8145 7.72563 15.7437C7.83994 15.7432 7.95358 15.7264 8.06313 15.6937C8.16816 15.6455 8.25055 15.5587 8.29313 15.4512C8.37188 15.2562 8.29313 14.9425 8.04188 14.6037C7.79063 14.2625 7.36313 13.8787 6.73813 13.4937C6.27813 13.2025 6.01938 12.86 5.89938 12.4762C5.77938 12.0862 5.79563 11.685 5.88813 11.2762C6.06688 10.4962 6.52563 9.73875 6.81688 9.2625C6.89563 9.215 6.84438 9.36 6.51938 9.9725C6.23188 10.52 5.68813 11.7925 6.43188 12.7825C6.45938 12.06 6.61938 11.35 6.90313 10.685C7.31438 9.75375 8.17313 8.13 8.24063 6.84375C8.27688 6.87 8.39938 6.94375 8.45313 6.99125C8.61063 7.08875 8.72813 7.23375 8.88188 7.33C8.96619 7.412 9.06628 7.47601 9.17609 7.51812C9.28589 7.56024 9.40312 7.57959 9.52063 7.575L9.60188 7.57875C9.90188 7.57875 10.1331 7.48125 10.3281 7.38375C10.5406 7.28625 10.7081 7.14 10.8681 7.0925H10.8719C11.2119 6.9925 11.4806 6.8 11.6331 6.5825ZM13.2269 13.1137C13.2531 13.5512 13.4769 14.0212 13.8694 14.1175C14.2981 14.215 14.9156 13.875 15.1756 13.56L15.3294 13.5525C15.5594 13.5475 15.7506 13.56 15.9469 13.7475L15.9494 13.75C16.1006 13.895 16.1719 14.1375 16.2344 14.3887C16.2969 14.68 16.3469 14.9575 16.5331 15.1662C16.8869 15.55 17.0031 15.8262 16.9956 15.9975L16.9994 15.9925V16.005L16.9969 15.9962C16.9856 16.1875 16.8619 16.285 16.6344 16.43C16.1744 16.7225 15.3594 16.95 14.8419 17.575C14.3919 18.1125 13.8419 18.4062 13.3569 18.4437C12.8731 18.4812 12.4556 18.2975 12.2094 17.7887L12.2056 17.7862C12.0531 17.495 12.1181 17.04 12.2469 16.555C12.3756 16.0675 12.5594 15.575 12.5844 15.1712C12.6119 14.65 12.6394 14.1975 12.7269 13.8487C12.8144 13.51 12.9519 13.2675 13.1944 13.1312L13.2269 13.1137ZM5.34188 13.1487H5.34938C5.38755 13.1492 5.42561 13.153 5.46313 13.16C5.73813 13.2 5.97813 13.4025 6.20938 13.7075L6.87188 14.92L6.87563 14.9237C7.05188 15.3112 7.42563 15.6987 7.74188 16.1175C8.05813 16.5525 8.30438 16.9425 8.27313 17.2612V17.2662C8.23188 17.8087 7.92313 18.1037 7.45313 18.21C6.98313 18.3087 6.34438 18.21 5.70688 17.8725C5.00063 17.48 4.16313 17.53 3.62313 17.4325C3.35438 17.3837 3.17938 17.2862 3.09688 17.1412C3.01688 16.995 3.01438 16.7012 3.18563 16.2437V16.2412L3.18813 16.2387C3.27313 15.995 3.20938 15.69 3.16813 15.4237C3.12813 15.1312 3.10688 14.9062 3.19938 14.7375C3.31563 14.495 3.48688 14.4462 3.70188 14.35C3.91688 14.25 4.16938 14.2025 4.36938 14.0062C4.55688 13.81 4.69563 13.5675 4.85813 13.3937C4.99563 13.2475 5.13563 13.1487 5.34188 13.1487ZM10.5619 6.5325C10.2444 6.67875 9.87313 6.9225 9.47688 6.9225C9.08188 6.9225 8.76938 6.72875 8.54313 6.5825C8.43063 6.485 8.33938 6.3875 8.27188 6.33875C8.15188 6.24125 8.16688 6.09625 8.21688 6.09625C8.29688 6.10875 8.31188 6.19375 8.36313 6.2425C8.43313 6.29 8.51938 6.3875 8.62563 6.485C8.83813 6.63 9.12063 6.825 9.47563 6.825C9.82938 6.825 10.2444 6.63 10.4956 6.485C10.6381 6.3875 10.8206 6.2425 10.9681 6.145C11.0806 6.045 11.0769 5.95 11.1719 5.95C11.2644 5.9625 11.1969 6.0475 11.0644 6.1925C10.9019 6.315 10.7344 6.42875 10.5606 6.53375L10.5619 6.5325ZM9.77313 5.37875V5.3625C9.76813 5.3475 9.78188 5.3325 9.79438 5.325C9.84813 5.295 9.92563 5.30625 9.98313 5.32875C10.0294 5.32875 10.1006 5.37875 10.0931 5.4275C10.0881 5.46375 10.0306 5.475 9.99438 5.475C9.95438 5.475 9.92688 5.44375 9.89188 5.425C9.85438 5.4125 9.78563 5.42 9.77313 5.37875ZM9.37063 5.37875C9.35688 5.42125 9.28813 5.41375 9.24938 5.42625C9.21563 5.445 9.18688 5.47625 9.14813 5.47625C9.11063 5.47625 9.05313 5.46125 9.04813 5.42625C9.04188 5.37875 9.11313 5.33 9.15813 5.33C9.21688 5.3075 9.29188 5.295 9.34688 5.32625C9.36063 5.3325 9.37313 5.3475 9.36938 5.3625V5.3775L9.37063 5.37875Z" fill="#EA580C"/>
</svg>

